<?xml version="1.0" encoding="UTF-8" standalone="no"?>
<svg
   id="Layer_1"
   data-name="Layer 1"
   viewBox="0 0 118.04 122.88"
   version="1.1"
   sodipodi:docname="refresh.svg"
   inkscape:version="1.4.2 (1:1.4.2+202505120737+ebf0e940d0)"
   xmlns:inkscape="http://www.inkscape.org/namespaces/inkscape"
   xmlns:sodipodi="http://sodipodi.sourceforge.net/DTD/sodipodi-0.dtd"
   xmlns="http://www.w3.org/2000/svg"
   xmlns:svg="http://www.w3.org/2000/svg">
  <defs
     id="defs1" />
  <sodipodi:namedview
     id="namedview1"
     pagecolor="#ffffff"
     bordercolor="#666666"
     borderopacity="1.0"
     inkscape:showpageshadow="2"
     inkscape:pageopacity="0.0"
     inkscape:pagecheckerboard="0"
     inkscape:deskcolor="#d1d1d1"
     inkscape:zoom="6.3639324"
     inkscape:cx="59.082965"
     inkscape:cy="61.439999"
     inkscape:window-width="1920"
     inkscape:window-height="987"
     inkscape:window-x="1920"
     inkscape:window-y="28"
     inkscape:window-maximized="1"
     inkscape:current-layer="Layer_1" />
  <path
     d="M16.08,59.26A8,8,0,0,1,0,59.26a59,59,0,0,1,97.13-45V8a8,8,0,1,1,16.08,0V33.35a8,8,0,0,1-8,8L80.82,43.62a8,8,0,1,1-1.44-15.95l8-.73A43,43,0,0,0,16.08,59.26Zm22.77,19.6a8,8,0,0,1,1.44,16l-10.08.91A42.95,42.95,0,0,0,102,63.86a8,8,0,0,1,16.08,0A59,59,0,0,1,22.3,110v4.18a8,8,0,0,1-16.08,0V89.14h0a8,8,0,0,1,7.29-8l25.31-2.3Z"
     id="path1"
     style="stroke:none;stroke-opacity:1;fill:#0000ac;fill-opacity:1" />
</svg>
